<svg version="1.1" viewBox="0.0 0.0 400.0 820.0" fill="none" stroke="none" stroke-linecap="square" stroke-miterlimit="10" xmlns:xlink="http://www.w3.org/1999/xlink" xmlns="http://www.w3.org/2000/svg"><clipPath id="p.0"><path d="m0 0l400.0 0l0 820.0l-400.0 0l0 -820.0z" clip-rule="nonzero"/></clipPath><g clip-path="url(#p.0)"><path fill="#000000" fill-opacity="0.0" d="m0 0l400.0 0l0 820.0l-400.0 0z" fill-rule="evenodd"/><path fill="#efefef" d="m0 82.59843l0 0c0 -45.61785 89.04951 -82.59843 198.89764 -82.59843l0 0c109.848114 0 198.89764 36.980576 198.89764 82.59843l0 0c0 45.61785 -89.04953 82.59843 -198.89764 82.59843l0 0c-109.84814 0 -198.89764 -36.980576 -198.89764 -82.59843z" fill-rule="evenodd"/><path stroke="#000000" stroke-width="1.5905511811023623" stroke-linejoin="round" stroke-linecap="butt" d="m0 82.59843l0 0c0 -45.61785 89.04951 -82.59843 198.89764 -82.59843l0 0c109.848114 0 198.89764 36.980576 198.89764 82.59843l0 0c0 45.61785 -89.04953 82.59843 -198.89764 82.59843l0 0c-109.84814 0 -198.89764 -36.980576 -198.89764 -82.59843z" fill-rule="evenodd"/><path fill="#000000" d="m119.99165 87.85673l0 -1.0l2.578125 0l0 -8.359375l-2.578125 0l0 -1.0l6.40625 0l0 1.0l-2.578125 0l0 8.359375l2.578125 0l0 1.0l-6.40625 0zm9.1093445 0l0 -7.65625l1.1875 0l0 1.25l0.0625 0q0.109375 -0.28125 0.28125 -0.546875q0.1875 -0.265625 0.453125 -0.453125q0.265625 -0.1875 0.609375 -0.3125q0.359375 -0.125 0.84375 -0.125q1.1875 0 1.921875 0.765625q0.734375 0.765625 0.734375 2.171875l0 4.90625l-1.1875 0l0 -4.703125q0 -1.0625 -0.46875 -1.5625q-0.453125 -0.515625 -1.34375 -0.515625q-0.359375 0 -0.703125 0.09375q-0.34375 0.078125 -0.609375 0.265625q-0.265625 0.171875 -0.4375 0.453125q-0.15625 0.28125 -0.15625 0.65625l0 5.3125l-1.1875 0zm12.3749695 -9.34375q-0.515625 0 -0.71875 -0.21875q-0.203125 -0.21875 -0.203125 -0.546875l0 -0.234375q0 -0.328125 0.203125 -0.546875q0.203125 -0.21875 0.71875 -0.21875q0.53125 0 0.734375 0.21875q0.203125 0.21875 0.203125 0.546875l0 0.234375q0 0.328125 -0.203125 0.546875q-0.203125 0.21875 -0.734375 0.21875zm-3.34375 8.328125l2.75 0l0 -5.640625l-2.75 0l0 -1.0l3.9375 0l0 6.640625l2.59375 0l0 1.015625l-6.53125 0l0 -1.015625zm12.1562195 1.015625q-0.875 0 -1.296875 -0.484375q-0.40625 -0.5 -0.40625 -1.265625l0 -4.90625l-2.546875 0l0 -1.0l1.90625 0q0.375 0 0.53125 -0.15625q0.15625 -0.15625 0.15625 -0.546875l0 -2.0l1.140625 0l0 2.703125l3.5 0l0 1.0l-3.5 0l0 5.640625l3.5 0l0 1.015625l-2.984375 0zm8.9999695 -9.34375q-0.515625 0 -0.71875 -0.21875q-0.203125 -0.21875 -0.203125 -0.546875l0 -0.234375q0 -0.328125 0.203125 -0.546875q0.203125 -0.21875 0.71875 -0.21875q0.53125 0 0.734375 0.21875q0.203125 0.21875 0.203125 0.546875l0 0.234375q0 0.328125 -0.203125 0.546875q-0.203125 0.21875 -0.734375 0.21875zm-3.34375 8.328125l2.75 0l0 -5.640625l-2.75 0l0 -1.0l3.9375 0l0 6.640625l2.59375 0l0 1.015625l-6.53125 0l0 -1.015625zm14.6718445 1.015625q-0.6875 0 -0.984375 -0.359375q-0.296875 -0.359375 -0.375 -0.890625l-0.078125 0q-0.25 0.671875 -0.8125 1.046875q-0.546875 0.375 -1.484375 0.375q-1.203125 0 -1.921875 -0.609375q-0.703125 -0.625 -0.703125 -1.71875q0 -1.0625 0.765625 -1.640625q0.78125 -0.578125 2.53125 -0.578125l1.625 0l0 -0.765625q0 -0.84375 -0.484375 -1.265625q-0.46875 -0.421875 -1.34375 -0.421875q-0.765625 0 -1.265625 0.3125q-0.484375 0.296875 -0.78125 0.8125l-0.796875 -0.59375q0.140625 -0.296875 0.390625 -0.578125q0.265625 -0.28125 0.625 -0.484375q0.375 -0.21875 0.84375 -0.34375q0.484375 -0.140625 1.0625 -0.140625q1.34375 0 2.140625 0.6875q0.796875 0.6875 0.796875 1.90625l0 4.21875l1.0625 0l0 1.03125l-0.8125 0zm-3.53125 -0.8125q0.46875 0 0.84375 -0.109375q0.375 -0.109375 0.65625 -0.296875q0.28125 -0.1875 0.4375 -0.4375q0.15625 -0.265625 0.15625 -0.5625l0 -1.265625l-1.625 0q-1.078125 0 -1.578125 0.296875q-0.484375 0.296875 -0.484375 0.859375l0 0.3125q0 0.59375 0.421875 0.90625q0.4375 0.296875 1.171875 0.296875zm6.2812195 -0.203125l2.671875 0l0 -8.953125l-2.671875 0l0 -1.015625l3.859375 0l0 9.96875l2.671875 0l0 1.015625l-6.53125 0l0 -1.015625zm21.343689 1.1875q-0.828125 0 -1.484375 -0.28125q-0.640625 -0.296875 -1.09375 -0.8125q-0.4375 -0.515625 -0.671875 -1.25q-0.21875 -0.75 -0.21875 -1.65625q0 -0.90625 0.234375 -1.640625q0.234375 -0.75 0.671875 -1.265625q0.453125 -0.53125 1.09375 -0.8125q0.640625 -0.296875 1.453125 -0.296875q1.109375 0 1.8125 0.5q0.703125 0.484375 1.03125 1.265625l-0.953125 0.515625q-0.21875 -0.59375 -0.703125 -0.921875q-0.46875 -0.328125 -1.1875 -0.328125q-0.515625 0 -0.921875 0.171875q-0.40625 0.171875 -0.6875 0.484375q-0.28125 0.3125 -0.4375 0.75q-0.140625 0.421875 -0.140625 0.921875l0 1.3125q0 0.5 0.140625 0.9375q0.15625 0.421875 0.4375 0.734375q0.28125 0.3125 0.6875 0.484375q0.421875 0.171875 0.953125 0.171875q0.765625 0 1.265625 -0.359375q0.515625 -0.359375 0.8125 -0.984375l0.84375 0.578125q-0.34375 0.78125 -1.0625 1.28125q-0.71875 0.5 -1.875 0.5zm11.5312195 -0.171875q-0.6875 0 -0.984375 -0.359375q-0.296875 -0.359375 -0.375 -0.890625l-0.078125 0q-0.25 0.671875 -0.8125 1.046875q-0.546875 0.375 -1.484375 0.375q-1.203125 0 -1.921875 -0.609375q-0.703125 -0.625 -0.703125 -1.71875q0 -1.0625 0.765625 -1.640625q0.78125 -0.578125 2.53125 -0.578125l1.625 0l0 -0.765625q0 -0.84375 -0.484375 -1.265625q-0.46875 -0.421875 -1.34375 -0.421875q-0.765625 0 -1.265625 0.3125q-0.484375 0.296875 -0.78125 0.8125l-0.796875 -0.59375q0.140625 -0.296875 0.390625 -0.578125q0.265625 -0.28125 0.625 -0.484375q0.375 -0.21875 0.84375 -0.34375q0.484375 -0.140625 1.0625 -0.140625q1.34375 0 2.140625 0.6875q0.796875 0.6875 0.796875 1.90625l0 4.21875l1.0625 0l0 1.03125l-0.8125 0zm-3.53125 -0.8125q0.46875 0 0.84375 -0.109375q0.375 -0.109375 0.65625 -0.296875q0.28125 -0.1875 0.4375 -0.4375q0.15625 -0.265625 0.15625 -0.5625l0 -1.265625l-1.625 0q-1.078125 0 -1.578125 0.296875q-0.484375 0.296875 -0.484375 0.859375l0 0.3125q0 0.59375 0.421875 0.90625q0.4375 0.296875 1.171875 0.296875zm6.5468445 0.8125l0 -7.65625l1.1875 0l0 1.25l0.0625 0q0.109375 -0.28125 0.28125 -0.546875q0.1875 -0.265625 0.453125 -0.453125q0.265625 -0.1875 0.609375 -0.3125q0.359375 -0.125 0.84375 -0.125q1.1875 0 1.921875 0.765625q0.734375 0.765625 0.734375 2.171875l0 4.90625l-1.1875 0l0 -4.703125q0 -1.0625 -0.46875 -1.5625q-0.453125 -0.515625 -1.34375 -0.515625q-0.359375 0 -0.703125 0.09375q-0.34375 0.078125 -0.609375 0.265625q-0.265625 0.171875 -0.4375 0.453125q-0.15625 0.28125 -0.15625 0.65625l0 5.3125l-1.1875 0zm13.7655945 -1.25l-0.0625 0q-0.75 1.421875 -2.359375 1.421875q-1.40625 0 -2.203125 -1.046875q-0.796875 -1.046875 -0.796875 -2.953125q0 -1.90625 0.796875 -2.953125q0.796875 -1.0625 2.203125 -1.0625q1.609375 0 2.359375 1.4375l0.0625 0l0 -4.578125l1.1875 0l0 10.984375l-1.1875 0l0 -1.25zm-1.96875 0.375q0.40625 0 0.765625 -0.09375q0.359375 -0.109375 0.625 -0.3125q0.265625 -0.203125 0.421875 -0.484375q0.15625 -0.296875 0.15625 -0.6875l0 -2.75q0 -0.390625 -0.15625 -0.671875q-0.15625 -0.296875 -0.421875 -0.5q-0.265625 -0.203125 -0.625 -0.296875q-0.359375 -0.109375 -0.765625 -0.109375q-1.03125 0 -1.609375 0.640625q-0.5625 0.625 -0.5625 1.65625l0 1.3125q0 1.03125 0.5625 1.671875q0.578125 0.625 1.609375 0.625zm9.4843445 -8.46875q-0.515625 0 -0.71875 -0.21875q-0.203125 -0.21875 -0.203125 -0.546875l0 -0.234375q0 -0.328125 0.203125 -0.546875q0.203125 -0.21875 0.71875 -0.21875q0.53125 0 0.734375 0.21875q0.203125 0.21875 0.203125 0.546875l0 0.234375q0 0.328125 -0.203125 0.546875q-0.203125 0.21875 -0.734375 0.21875zm-3.34375 8.328125l2.75 0l0 -5.640625l-2.75 0l0 -1.0l3.9375 0l0 6.640625l2.59375 0l0 1.015625l-6.53125 0l0 -1.015625zm13.6405945 -0.234375l-0.0625 0q-0.75 1.421875 -2.359375 1.421875q-1.40625 0 -2.203125 -1.046875q-0.796875 -1.046875 -0.796875 -2.953125q0 -1.90625 0.796875 -2.953125q0.796875 -1.0625 2.203125 -1.0625q1.609375 0 2.359375 1.4375l0.0625 0l0 -4.578125l1.1875 0l0 10.984375l-1.1875 0l0 -1.25zm-1.96875 0.375q0.40625 0 0.765625 -0.09375q0.359375 -0.109375 0.625 -0.3125q0.265625 -0.203125 0.421875 -0.484375q0.15625 -0.296875 0.15625 -0.6875l0 -2.75q0 -0.390625 -0.15625 -0.671875q-0.15625 -0.296875 -0.421875 -0.5q-0.265625 -0.203125 -0.625 -0.296875q-0.359375 -0.109375 -0.765625 -0.109375q-1.03125 0 -1.609375 0.640625q-0.5625 0.625 -0.5625 1.65625l0 1.3125q0 1.03125 0.5625 1.671875q0.578125 0.625 1.609375 0.625zm11.9062195 0.875q-0.6875 0 -0.984375 -0.359375q-0.296875 -0.359375 -0.375 -0.890625l-0.078125 0q-0.25 0.671875 -0.8125 1.046875q-0.546875 0.375 -1.484375 0.375q-1.203125 0 -1.921875 -0.609375q-0.703125 -0.625 -0.703125 -1.71875q0 -1.0625 0.765625 -1.640625q0.78125 -0.578125 2.53125 -0.578125l1.625 0l0 -0.765625q0 -0.84375 -0.484375 -1.265625q-0.46875 -0.421875 -1.34375 -0.421875q-0.765625 0 -1.265625 0.3125q-0.484375 0.296875 -0.78125 0.8125l-0.796875 -0.59375q0.140625 -0.296875 0.390625 -0.578125q0.265625 -0.28125 0.625 -0.484375q0.375 -0.21875 0.84375 -0.34375q0.484375 -0.140625 1.0625 -0.140625q1.34375 0 2.140625 0.6875q0.796875 0.6875 0.796875 1.90625l0 4.21875l1.0625 0l0 1.03125l-0.8125 0zm-3.53125 -0.8125q0.46875 0 0.84375 -0.109375q0.375 -0.109375 0.65625 -0.296875q0.28125 -0.1875 0.4375 -0.4375q0.15625 -0.265625 0.15625 -0.5625l0 -1.265625l-1.625 0q-1.078125 0 -1.578125 0.296875q-0.484375 0.296875 -0.484375 0.859375l0 0.3125q0 0.59375 0.421875 0.90625q0.4375 0.296875 1.171875 0.296875zm9.92186 0.8125q-0.875 0 -1.2968903 -0.484375q-0.40625 -0.5 -0.40625 -1.265625l0 -4.90625l-2.546875 0l0 -1.0l1.90625 0q0.375 0 0.53125 -0.15625q0.15625 -0.15625 0.15625 -0.546875l0 -2.0l1.1406403 0l0 2.703125l3.5 0l0 1.0l-3.5 0l0 5.640625l3.5 0l0 1.015625l-2.984375 0zm8.6718445 0.171875q-0.84375 0 -1.5 -0.28125q-0.65625 -0.28125 -1.125 -0.796875q-0.46875 -0.53125 -0.71875 -1.265625q-0.25 -0.734375 -0.25 -1.640625q0 -0.921875 0.25 -1.65625q0.265625 -0.75 0.71875 -1.265625q0.46875 -0.53125 1.109375 -0.8125q0.640625 -0.296875 1.4375 -0.296875q0.765625 0 1.390625 0.296875q0.640625 0.28125 1.078125 0.78125q0.453125 0.484375 0.6875 1.171875q0.234375 0.6875 0.234375 1.5l0 0.5625l-5.671875 0l0 0.359375q0 0.5 0.15625 0.9375q0.171875 0.421875 0.46875 0.734375q0.3125 0.3125 0.75 0.484375q0.4375 0.171875 0.984375 0.171875q0.765625 0 1.328125 -0.359375q0.5625 -0.359375 0.859375 -0.984375l0.875 0.59375q-0.34375 0.78125 -1.140625 1.28125q-0.78125 0.484375 -1.921875 0.484375zm-0.078125 -7.03125q-0.5 0 -0.921875 0.1875q-0.40625 0.171875 -0.71875 0.484375q-0.296875 0.3125 -0.46875 0.734375q-0.171875 0.421875 -0.171875 0.921875l0 0.109375l4.40625 0l0 -0.171875q0 -0.5 -0.15625 -0.90625q-0.15625 -0.421875 -0.4375 -0.71875q-0.265625 -0.3125 -0.671875 -0.46875q-0.390625 -0.171875 -0.859375 -0.171875zm8.9374695 7.03125q-1.203125 0 -2.078125 -0.40625q-0.859375 -0.40625 -1.46875 -1.09375l0.796875 -0.6875q0.546875 0.578125 1.203125 0.890625q0.65625 0.3125 1.578125 0.3125q0.890625 0 1.453125 -0.3125q0.578125 -0.328125 0.578125 -1.015625q0 -0.296875 -0.125 -0.484375q-0.109375 -0.203125 -0.296875 -0.328125q-0.1875 -0.125 -0.4375 -0.1875q-0.234375 -0.0625 -0.5 -0.109375l-1.203125 -0.171875q-0.390625 -0.0625 -0.859375 -0.171875q-0.46875 -0.109375 -0.859375 -0.328125q-0.390625 -0.234375 -0.65625 -0.609375q-0.25 -0.390625 -0.25 -1.015625q0 -0.578125 0.234375 -1.0q0.234375 -0.421875 0.640625 -0.71875q0.421875 -0.296875 0.984375 -0.4375q0.5625 -0.140625 1.234375 -0.140625q1.03125 0 1.796875 0.328125q0.765625 0.328125 1.3125 0.90625l-0.765625 0.734375q-0.140625 -0.171875 -0.34375 -0.328125q-0.1875 -0.171875 -0.484375 -0.3125q-0.28125 -0.15625 -0.671875 -0.234375q-0.390625 -0.09375 -0.890625 -0.09375q-0.90625 0 -1.390625 0.3125q-0.484375 0.3125 -0.484375 0.90625q0 0.296875 0.109375 0.5q0.109375 0.203125 0.296875 0.328125q0.203125 0.109375 0.453125 0.171875q0.25 0.0625 0.5 0.109375l1.203125 0.1875q0.40625 0.046875 0.859375 0.15625q0.46875 0.109375 0.859375 0.34375q0.390625 0.21875 0.640625 0.609375q0.265625 0.390625 0.265625 1.0q0 1.15625 -0.890625 1.78125q-0.875 0.609375 -2.34375 0.609375z" fill-rule="nonzero"/><path fill="#e4eae2" d="m0 275.9701l0 0c0 -45.617844 89.04951 -82.59842 198.89764 -82.59842l0 0c109.848114 0 198.89764 36.980576 198.89764 82.59842l0 0c0 45.61786 -89.04953 82.59842 -198.89764 82.59842l0 0c-109.84814 0 -198.89764 -36.98056 -198.89764 -82.59842z" fill-rule="evenodd"/><path stroke="#000000" stroke-width="1.5905511811023623" stroke-linejoin="round" stroke-linecap="butt" d="m0 275.9701l0 0c0 -45.617844 89.04951 -82.59842 198.89764 -82.59842l0 0c109.848114 0 198.89764 36.980576 198.89764 82.59842l0 0c0 45.61786 -89.04953 82.59842 -198.89764 82.59842l0 0c-109.84814 0 -198.89764 -36.98056 -198.89764 -82.59842z" fill-rule="evenodd"/><path fill="#f4cccc" d="m0 278.82123l0 0c0 -22.674133 28.858244 -41.05513 64.456696 -41.05513l0 0c35.598442 0 64.456696 18.380997 64.456696 41.05513l0 0c0 22.674103 -28.858253 41.055115 -64.456696 41.055115l0 0c-35.59845 0 -64.456696 -18.381012 -64.456696 -41.055115z" fill-rule="evenodd"/><path stroke="#000000" stroke-width="1.5905511811023623" stroke-linejoin="round" stroke-linecap="butt" d="m0 278.82123l0 0c0 -22.674133 28.858244 -41.05513 64.456696 -41.05513l0 0c35.598442 0 64.456696 18.380997 64.456696 41.05513l0 0c0 22.674103 -28.858253 41.055115 -64.456696 41.055115l0 0c-35.59845 0 -64.456696 -18.381012 -64.456696 -41.055115z" fill-rule="evenodd"/><path fill="#000000" d="m39.144287 276.42328l1.1875 0l0 1.25l0.0625 0q0.75 -1.4375 2.359375 -1.4375q1.40625 0 2.203125 1.0625q0.796875 1.046875 0.796875 2.953125q0 1.90625 -0.796875 2.953125q-0.796875 1.046875 -2.203125 1.046875q-1.609375 0 -2.359375 -1.421875l-0.0625 0l0 4.21875l-1.1875 0l0 -10.625zm3.15625 6.78125q1.03125 0 1.59375 -0.625q0.578125 -0.640625 0.578125 -1.671875l0 -1.3125q0 -1.03125 -0.578125 -1.65625q-0.5625 -0.640625 -1.59375 -0.640625q-0.40625 0 -0.765625 0.109375q-0.359375 0.09375 -0.625 0.296875q-0.265625 0.203125 -0.421875 0.5q-0.15625 0.28125 -0.15625 0.671875l0 2.75q0 0.390625 0.15625 0.6875q0.15625 0.28125 0.421875 0.484375q0.265625 0.203125 0.625 0.3125q0.359375 0.09375 0.765625 0.09375zm8.9374695 1.046875q-0.84375 0 -1.5 -0.28125q-0.65625 -0.28125 -1.125 -0.796875q-0.46875 -0.53125 -0.71875 -1.265625q-0.25 -0.734375 -0.25 -1.640625q0 -0.921875 0.25 -1.65625q0.265625 -0.75 0.71875 -1.265625q0.46875 -0.53125 1.109375 -0.8125q0.640625 -0.296875 1.4375 -0.296875q0.765625 0 1.390625 0.296875q0.640625 0.28125 1.078125 0.78125q0.453125 0.484375 0.6875 1.171875q0.234375 0.6875 0.234375 1.5l0 0.5625l-5.671875 0l0 0.359375q0 0.5 0.15625 0.9375q0.171875 0.421875 0.46875 0.734375q0.3125 0.3125 0.75 0.484375q0.4375 0.171875 0.984375 0.171875q0.765625 0 1.328125 -0.359375q0.5625 -0.359375 0.859375 -0.984375l0.875 0.59375q-0.34375 0.78125 -1.140625 1.28125q-0.78125 0.484375 -1.921875 0.484375zm-0.078125 -7.03125q-0.5 0 -0.921875 0.1875q-0.40625 0.171875 -0.71875 0.484375q-0.296875 0.3125 -0.46875 0.734375q-0.171875 0.421875 -0.171875 0.921875l0 0.109375l4.40625 0l0 -0.171875q0 -0.5 -0.15625 -0.90625q-0.15625 -0.421875 -0.4375 -0.71875q-0.265625 -0.3125 -0.671875 -0.46875q-0.390625 -0.171875 -0.859375 -0.171875zm5.2968445 6.859375l2.84375 -3.890625l-2.765625 -3.765625l1.421875 0l1.15625 1.609375l0.921875 1.28125l0.0625 0l0.890625 -1.28125l1.140625 -1.609375l1.359375 0l-2.796875 3.75l2.875 3.90625l-1.421875 0l-1.296875 -1.796875l-0.875 -1.21875l-0.0625 0l-0.84375 1.21875l-1.25 1.796875l-1.359375 0zm19.109314 -3.203125l-1.96875 0l0 -0.984375l2.140625 0l0.34375 -1.984375l-1.953125 0l0 -0.984375l2.125 0l0.5625 -3.203125l1.09375 0l-1.828125 10.359375l-1.09375 0l0.578125 -3.203125zm3.984375 -7.15625l1.078125 0l-0.5625 3.203125l1.96875 0l0 0.984375l-2.140625 0l-0.34375 1.984375l1.953125 0l0 0.984375l-2.125 0l-0.5625 3.203125l-1.09375 0l1.828125 -10.359375zm3.9843445 10.359375l0 -1.078125l2.96875 0l0 -8.359375l-0.109375 0l-2.609375 2.4375l-0.734375 -0.796875l2.75 -2.5625l1.953125 0l0 9.28125l2.71875 0l0 1.078125l-6.9375 0z" fill-rule="nonzero"/><path fill="#f4cccc" d="m257.0714 291.6772l0 0c0 -22.674133 28.858246 -41.055115 64.456696 -41.055115l0 0c35.59845 0 64.456696 18.380981 64.456696 41.055115l0 0c0 22.674103 -28.858246 41.055115 -64.456696 41.055115l0 0c-35.59845 0 -64.456696 -18.381012 -64.456696 -41.055115z" fill-rule="evenodd"/><path stroke="#000000" stroke-width="1.5905511811023623" stroke-linejoin="round" stroke-linecap="butt" d="m257.0714 291.6772l0 0c0 -22.674133 28.858246 -41.055115 64.456696 -41.055115l0 0c35.59845 0 64.456696 18.380981 64.456696 41.055115l0 0c0 22.674103 -28.858246 41.055115 -64.456696 41.055115l0 0c-35.59845 0 -64.456696 -18.381012 -64.456696 -41.055115z" fill-rule="evenodd"/><path fill="#000000" d="m296.2157 289.27924l1.1875 0l0 1.25l0.0625 0q0.75 -1.4375 2.359375 -1.4375q1.40625 0 2.203125 1.0625q0.796875 1.046875 0.796875 2.953125q0 1.90625 -0.796875 2.953125q-0.796875 1.046875 -2.203125 1.046875q-1.609375 0 -2.359375 -1.421875l-0.0625 0l0 4.21875l-1.1875 0l0 -10.625zm3.15625 6.78125q1.03125 0 1.59375 -0.625q0.578125 -0.640625 0.578125 -1.671875l0 -1.3125q0 -1.03125 -0.578125 -1.65625q-0.5625 -0.640625 -1.59375 -0.640625q-0.40625 0 -0.765625 0.109375q-0.359375 0.09375 -0.625 0.296875q-0.265625 0.203125 -0.421875 0.5q-0.15625 0.28125 -0.15625 0.671875l0 2.75q0 0.390625 0.15625 0.6875q0.15625 0.28125 0.421875 0.484375q0.265625 0.203125 0.625 0.3125q0.359375 0.09375 0.765625 0.09375zm8.9374695 1.046875q-0.84375 0 -1.5 -0.28125q-0.65625 -0.28125 -1.125 -0.796875q-0.46875 -0.53125 -0.71875 -1.265625q-0.25 -0.734375 -0.25 -1.640625q0 -0.921875 0.25 -1.65625q0.265625 -0.75 0.71875 -1.265625q0.46875 -0.53125 1.109375 -0.8125q0.640625 -0.296875 1.4375 -0.296875q0.765625 0 1.390625 0.296875q0.640625 0.28125 1.078125 0.78125q0.453125 0.484375 0.6875 1.171875q0.234375 0.6875 0.234375 1.5l0 0.5625l-5.671875 0l0 0.359375q0 0.5 0.15625 0.9375q0.171875 0.421875 0.46875 0.734375q0.3125 0.3125 0.75 0.484375q0.4375 0.171875 0.984375 0.171875q0.765625 0 1.328125 -0.359375q0.5625 -0.359375 0.859375 -0.984375l0.875 0.59375q-0.34375 0.78125 -1.140625 1.28125q-0.78125 0.484375 -1.921875 0.484375zm-0.078125 -7.03125q-0.5 0 -0.921875 0.1875q-0.40625 0.171875 -0.71875 0.484375q-0.296875 0.3125 -0.46875 0.734375q-0.171875 0.421875 -0.171875 0.921875l0 0.109375l4.40625 0l0 -0.171875q0 -0.5 -0.15625 -0.90625q-0.15625 -0.421875 -0.4375 -0.71875q-0.265625 -0.3125 -0.671875 -0.46875q-0.390625 -0.171875 -0.859375 -0.171875zm5.2968445 6.859375l2.84375 -3.890625l-2.765625 -3.765625l1.421875 0l1.15625 1.609375l0.921875 1.28125l0.0625 0l0.890625 -1.28125l1.140625 -1.609375l1.359375 0l-2.796875 3.75l2.875 3.90625l-1.421875 0l-1.296875 -1.796875l-0.875 -1.21875l-0.0625 0l-0.84375 1.21875l-1.25 1.796875l-1.359375 0zm19.109314 -3.203125l-1.96875 0l0 -0.984375l2.140625 0l0.34375 -1.984375l-1.953125 0l0 -0.984375l2.125 0l0.5625 -3.203125l1.09375 0l-1.828125 10.359375l-1.09375 0l0.578125 -3.203125zm3.984375 -7.15625l1.078125 0l-0.5625 3.203125l1.96875 0l0 0.984375l-2.140625 0l-0.34375 1.984375l1.953125 0l0 0.984375l-2.125 0l-0.5625 3.203125l-1.09375 0l1.828125 -10.359375zm10.6874695 10.359375l-6.921875 0l0 -1.28125l3.46875 -3.109375q0.75 -0.6875 1.234375 -1.40625q0.5 -0.71875 0.5 -1.515625l0 -0.1875q0 -0.9375 -0.5 -1.4375q-0.484375 -0.515625 -1.453125 -0.515625q-0.9375 0 -1.453125 0.484375q-0.515625 0.484375 -0.765625 1.28125l-1.109375 -0.421875q0.140625 -0.453125 0.390625 -0.890625q0.265625 -0.4375 0.671875 -0.78125q0.40625 -0.34375 0.96875 -0.546875q0.578125 -0.203125 1.328125 -0.203125q0.78125 0 1.375 0.21875q0.609375 0.21875 1.015625 0.625q0.40625 0.390625 0.625 0.953125q0.21875 0.546875 0.21875 1.1875q0 0.59375 -0.171875 1.125q-0.171875 0.515625 -0.484375 1.0q-0.296875 0.46875 -0.71875 0.921875q-0.421875 0.453125 -0.953125 0.890625l-2.890625 2.53125l5.625 0l0 1.078125z" fill-rule="nonzero"/><path fill="#f4cccc" d="m206.41396 320.53638l0 0c0 -18.107971 23.161331 -32.787384 51.732285 -32.787384l0 0c28.570953 0 51.7323 14.679413 51.7323 32.787384l0 0c0 18.108002 -23.161346 32.787415 -51.7323 32.787415l0 0c-28.570953 0 -51.732285 -14.679413 -51.732285 -32.787415z" fill-rule="evenodd"/><path stroke="#000000" stroke-width="1.5905511811023623" stroke-linejoin="round" stroke-linecap="butt" d="m206.41396 320.53638l0 0c0 -18.107971 23.161331 -32.787384 51.732285 -32.787384l0 0c28.570953 0 51.7323 14.679413 51.7323 32.787384l0 0c0 18.108002 -23.161346 32.787415 -51.7323 32.787415l0 0c-28.570953 0 -51.732285 -14.679413 -51.732285 -32.787415z" fill-rule="evenodd"/><path fill="#000000" d="m232.83383 318.13843l1.1875 0l0 1.25l0.0625 0q0.75 -1.4375 2.359375 -1.4375q1.40625 0 2.203125 1.0625q0.796875 1.046875 0.796875 2.953125q0 1.90625 -0.796875 2.953125q-0.796875 1.046875 -2.203125 1.046875q-1.609375 0 -2.359375 -1.421875l-0.0625 0l0 4.21875l-1.1875 0l0 -10.625zm3.15625 6.78125q1.03125 0 1.59375 -0.625q0.578125 -0.640625 0.578125 -1.671875l0 -1.3125q0 -1.03125 -0.578125 -1.65625q-0.5625 -0.640625 -1.59375 -0.640625q-0.40625 0 -0.765625 0.109375q-0.359375 0.09375 -0.625 0.296875q-0.265625 0.203125 -0.421875 0.5q-0.15625 0.28125 -0.15625 0.671875l0 2.75q0 0.390625 0.15625 0.6875q0.15625 0.28125 0.421875 0.484375q0.265625 0.203125 0.625 0.3125q0.359375 0.09375 0.765625 0.09375zm8.9374695 1.046875q-0.84375 0 -1.5 -0.28125q-0.65625 -0.28125 -1.125 -0.796875q-0.46875 -0.53125 -0.71875 -1.265625q-0.25 -0.734375 -0.25 -1.640625q0 -0.921875 0.25 -1.65625q0.265625 -0.75 0.71875 -1.265625q0.46875 -0.53125 1.109375 -0.8125q0.640625 -0.296875 1.4375 -0.296875q0.765625 0 1.390625 0.296875q0.640625 0.28125 1.078125 0.78125q0.453125 0.484375 0.6875 1.171875q0.234375 0.6875 0.234375 1.5l0 0.5625l-5.671875 0l0 0.359375q0 0.5 0.15625 0.9375q0.171875 0.421875 0.46875 0.734375q0.3125 0.3125 0.75 0.484375q0.4375 0.171875 0.984375 0.171875q0.765625 0 1.328125 -0.359375q0.5625 -0.359375 0.859375 -0.984375l0.875 0.59375q-0.34375 0.78125 -1.140625 1.28125q-0.78125 0.484375 -1.921875 0.484375zm-0.078125 -7.03125q-0.5 0 -0.921875 0.1875q-0.40625 0.171875 -0.71875 0.484375q-0.296875 0.3125 -0.46875 0.734375q-0.171875 0.421875 -0.171875 0.921875l0 0.109375l4.40625 0l0 -0.171875q0 -0.5 -0.15625 -0.90625q-0.15625 -0.421875 -0.4375 -0.71875q-0.265625 -0.3125 -0.671875 -0.46875q-0.390625 -0.171875 -0.859375 -0.171875zm5.2968445 6.859375l2.84375 -3.890625l-2.765625 -3.765625l1.421875 0l1.15625 1.609375l0.921875 1.28125l0.0625 0l0.890625 -1.28125l1.140625 -1.609375l1.359375 0l-2.796875 3.75l2.875 3.90625l-1.421875 0l-1.296875 -1.796875l-0.875 -1.21875l-0.0625 0l-0.84375 1.21875l-1.25 1.796875l-1.359375 0zm19.109314 -3.203125l-1.96875 0l0 -0.984375l2.140625 0l0.34375 -1.984375l-1.953125 0l0 -0.984375l2.125 0l0.5625 -3.203125l1.09375 0l-1.828125 10.359375l-1.09375 0l0.578125 -3.203125zm3.984375 -7.15625l1.078125 0l-0.5625 3.203125l1.96875 0l0 0.984375l-2.140625 0l-0.34375 1.984375l1.953125 0l0 0.984375l-2.125 0l-0.5625 3.203125l-1.09375 0l1.828125 -10.359375zm6.7187195 4.390625q1.09375 0 1.625 -0.484375q0.546875 -0.484375 0.546875 -1.234375l0 -0.109375q0 -0.828125 -0.53125 -1.234375q-0.515625 -0.421875 -1.359375 -0.421875q-0.84375 0 -1.359375 0.359375q-0.5 0.359375 -0.828125 0.953125l-0.9375 -0.703125q0.1875 -0.3125 0.46875 -0.609375q0.296875 -0.3125 0.671875 -0.546875q0.375 -0.234375 0.875 -0.375q0.5 -0.15625 1.125 -0.15625q0.671875 0 1.25 0.171875q0.578125 0.15625 1.0 0.5q0.4375 0.328125 0.6875 0.828125q0.25 0.484375 0.25 1.109375q0 0.5 -0.15625 0.90625q-0.15625 0.390625 -0.4375 0.6875q-0.265625 0.296875 -0.640625 0.515625q-0.375 0.203125 -0.78125 0.3125l0 0.046875q0.421875 0.09375 0.8125 0.296875q0.40625 0.203125 0.71875 0.53125q0.3125 0.3125 0.5 0.765625q0.1875 0.453125 0.1875 1.03125q0 0.65625 -0.265625 1.21875q-0.25 0.5625 -0.71875 0.953125q-0.46875 0.390625 -1.140625 0.609375q-0.65625 0.21875 -1.453125 0.21875q-0.6875 0 -1.21875 -0.15625q-0.515625 -0.140625 -0.921875 -0.390625q-0.40625 -0.25 -0.71875 -0.5625q-0.296875 -0.3125 -0.53125 -0.65625l0.921875 -0.703125q0.21875 0.3125 0.4375 0.5625q0.21875 0.25 0.5 0.4375q0.296875 0.1875 0.671875 0.296875q0.375 0.09375 0.859375 0.09375q1.09375 0 1.671875 -0.5q0.59375 -0.515625 0.59375 -1.4375l0 -0.125q0 -0.921875 -0.578125 -1.421875q-0.5625 -0.5 -1.703125 -0.5l-1.234375 0l0 -1.078125l1.140625 0z" fill-rule="nonzero"/><path fill="#dfe8dc" d="m32.09449 514.8082l0 0c0 -38.259857 74.68031 -69.27557 166.80316 -69.27557l0 0c92.12283 0 166.80313 31.015717 166.80313 69.27557l0 0c0 38.259888 -74.6803 69.27557 -166.80313 69.27557l0 0c-92.12284 0 -166.80316 -31.015686 -166.80316 -69.27557z" fill-rule="evenodd"/><path stroke="#000000" stroke-width="1.3333333333333333" stroke-linejoin="round" stroke-linecap="butt" d="m32.09449 514.8082l0 0c0 -38.259857 74.68031 -69.27557 166.80316 -69.27557l0 0c92.12283 0 166.80313 31.015717 166.80313 69.27557l0 0c0 38.259888 -74.6803 69.27557 -166.80313 69.27557l0 0c-92.12284 0 -166.80316 -31.015686 -166.80316 -69.27557z" fill-rule="evenodd"/><path fill="#f4cccc" d="m150.91077 496.6326l0 0c0 -22.674133 30.973434 -41.055115 69.18109 -41.055115l0 0c38.207672 0 69.18112 18.380981 69.18112 41.055115l0 0c0 22.674103 -30.97345 41.055084 -69.18112 41.055084l0 0c-38.207657 0 -69.18109 -18.380981 -69.18109 -41.055084z" fill-rule="evenodd"/><path stroke="#000000" stroke-width="1.3333333333333333" stroke-linejoin="round" stroke-linecap="butt" d="m150.91077 496.6326l0 0c0 -22.674133 30.973434 -41.055115 69.18109 -41.055115l0 0c38.207672 0 69.18112 18.380981 69.18112 41.055115l0 0c0 22.674103 -30.97345 41.055084 -69.18112 41.055084l0 0c-38.207657 0 -69.18109 -18.380981 -69.18109 -41.055084z" fill-rule="evenodd"/><path fill="#000000" d="m212.83722 501.24634q-0.6875 0 -1.234375 -0.25q-0.546875 -0.25 -0.921875 -0.671875q-0.359375 -0.4375 -0.5625 -1.0625q-0.1875 -0.625 -0.1875 -1.390625q0 -0.75 0.1875 -1.375q0.203125 -0.625 0.578125 -1.0625q0.375 -0.453125 0.90625 -0.6875q0.546875 -0.234375 1.234375 -0.234375q0.921875 0 1.5 0.421875q0.59375 0.40625 0.875 1.0625l-0.796875 0.421875q-0.171875 -0.5 -0.578125 -0.765625q-0.40625 -0.28125 -1.0 -0.28125q-0.4375 0 -0.78125 0.15625q-0.34375 0.140625 -0.578125 0.40625q-0.234375 0.25 -0.359375 0.609375q-0.125 0.359375 -0.125 0.78125l0 1.09375q0 0.4375 0.125 0.796875q0.125 0.359375 0.359375 0.625q0.234375 0.25 0.578125 0.40625q0.359375 0.140625 0.796875 0.140625q0.65625 0 1.078125 -0.296875q0.421875 -0.3125 0.671875 -0.828125l0.703125 0.484375q-0.28125 0.640625 -0.890625 1.078125q-0.59375 0.421875 -1.578125 0.421875zm7.3624725 0q-0.6875 0 -1.25 -0.234375q-0.546875 -0.25 -0.953125 -0.6875q-0.390625 -0.4375 -0.609375 -1.046875q-0.203125 -0.625 -0.203125 -1.390625q0 -0.765625 0.21875 -1.390625q0.21875 -0.625 0.609375 -1.0625q0.390625 -0.453125 0.921875 -0.6875q0.546875 -0.234375 1.203125 -0.234375q0.65625 0 1.171875 0.234375q0.53125 0.234375 0.90625 0.65625q0.375 0.421875 0.578125 1.0q0.203125 0.5625 0.203125 1.25l0 0.46875l-4.765625 0l0 0.296875q0 0.4375 0.140625 0.796875q0.140625 0.359375 0.390625 0.625q0.265625 0.25 0.625 0.40625q0.375 0.140625 0.8125 0.140625q0.65625 0 1.125 -0.296875q0.46875 -0.3125 0.71875 -0.828125l0.734375 0.5q-0.28125 0.640625 -0.953125 1.0625q-0.65625 0.421875 -1.625 0.421875zm-0.0625 -5.90625q-0.40625 0 -0.765625 0.15625q-0.34375 0.140625 -0.59375 0.40625q-0.25 0.25 -0.40625 0.609375q-0.140625 0.359375 -0.140625 0.78125l0 0.078125l3.6875 0l0 -0.125q0 -0.421875 -0.125 -0.765625q-0.125 -0.359375 -0.359375 -0.609375q-0.234375 -0.265625 -0.5625 -0.390625q-0.328125 -0.140625 -0.734375 -0.140625zm4.4562225 5.75l2.390625 -3.265625l-2.328125 -3.15625l1.1875 0l0.96875 1.359375l0.78125 1.0625l0.046875 0l0.75 -1.0625l0.953125 -1.359375l1.140625 0l-2.34375 3.140625l2.40625 3.28125l-1.1875 0l-1.078125 -1.5l-0.734375 -1.03125l-0.0625 0l-0.703125 1.03125l-1.046875 1.5l-1.140625 0z" fill-rule="nonzero"/><path fill="#d9ead3" d="m82.661415 755.4829l0 0c0 -32.363037 52.040733 -58.59845 116.23623 -58.59845l0 0c64.195496 0 116.236206 26.235413 116.236206 58.59845l0 0c0 32.363037 -52.04071 58.59845 -116.236206 58.59845l0 0c-64.195496 0 -116.23623 -26.235413 -116.23623 -58.59845z" fill-rule="evenodd"/><path stroke="#000000" stroke-width="1.3333333333333333" stroke-linejoin="round" stroke-linecap="butt" d="m82.661415 755.4829l0 0c0 -32.363037 52.040733 -58.59845 116.23623 -58.59845l0 0c64.195496 0 116.236206 26.235413 116.236206 58.59845l0 0c0 32.363037 -52.04071 58.59845 -116.236206 58.59845l0 0c-64.195496 0 -116.23623 -26.235413 -116.23623 -58.59845z" fill-rule="evenodd"/><path fill="#000000" d="m136.88693 752.4404l0 -8.6875l1.046875 0l0 7.78125l4.109375 0l0 0.90625l-5.15625 0zm9.815598 0.15625q-0.6875 0 -1.25 -0.234375q-0.546875 -0.25 -0.953125 -0.6875q-0.390625 -0.4375 -0.609375 -1.046875q-0.203125 -0.625 -0.203125 -1.390625q0 -0.765625 0.21875 -1.390625q0.21875 -0.625 0.609375 -1.0625q0.390625 -0.453125 0.921875 -0.6875q0.546875 -0.234375 1.203125 -0.234375q0.65625 0 1.171875 0.234375q0.53125 0.234375 0.90625 0.65625q0.375 0.421875 0.578125 1.0q0.203125 0.5625 0.203125 1.25l0 0.46875l-4.765625 0l0 0.296875q0 0.4375 0.140625 0.796875q0.140625 0.359375 0.390625 0.625q0.265625 0.25 0.625 0.40625q0.375 0.140625 0.8125 0.140625q0.65625 0 1.125 -0.296875q0.46875 -0.3125 0.71875 -0.828125l0.734375 0.5q-0.28125 0.640625 -0.953125 1.0625q-0.65625 0.421875 -1.625 0.421875zm-0.0625 -5.90625q-0.40625 0 -0.765625 0.15625q-0.34375 0.140625 -0.59375 0.40625q-0.25 0.25 -0.40625 0.609375q-0.140625 0.359375 -0.140625 0.78125l0 0.078125l3.6875 0l0 -0.125q0 -0.421875 -0.125 -0.765625q-0.125 -0.359375 -0.359375 -0.609375q-0.234375 -0.265625 -0.5625 -0.390625q-0.328125 -0.140625 -0.734375 -0.140625zm9.862473 5.75q-0.59375 0 -0.84375 -0.296875q-0.25 -0.296875 -0.3125 -0.75l-0.0625 0q-0.203125 0.5625 -0.671875 0.890625q-0.46875 0.3125 -1.25 0.3125q-1.015625 0 -1.609375 -0.515625q-0.59375 -0.53125 -0.59375 -1.453125q0 -0.890625 0.640625 -1.375q0.65625 -0.484375 2.125 -0.484375l1.359375 0l0 -0.640625q0 -0.703125 -0.40625 -1.0625q-0.390625 -0.359375 -1.125 -0.359375q-0.640625 0 -1.0625 0.265625q-0.40625 0.25 -0.65625 0.6875l-0.671875 -0.5q0.125 -0.25 0.328125 -0.484375q0.21875 -0.234375 0.53125 -0.40625q0.3125 -0.1875 0.703125 -0.296875q0.40625 -0.109375 0.890625 -0.109375q1.140625 0 1.796875 0.578125q0.671875 0.578125 0.671875 1.59375l0 3.53125l0.890625 0l0 0.875l-0.671875 0zm-2.96875 -0.6875q0.390625 0 0.703125 -0.09375q0.3125 -0.09375 0.546875 -0.25q0.234375 -0.15625 0.359375 -0.375q0.140625 -0.21875 0.140625 -0.46875l0 -1.046875l-1.359375 0q-0.90625 0 -1.3125 0.25q-0.40625 0.25 -0.40625 0.71875l0 0.265625q0 0.484375 0.34375 0.75q0.359375 0.25 0.984375 0.25zm5.2218475 -0.15625l1.890625 0l0 -4.734375l-1.890625 0l0 -0.84375l2.875 0l0 1.609375l0.0625 0q0.203125 -0.75 0.75 -1.171875q0.5625 -0.4375 1.421875 -0.4375l0.90625 0l0 1.0l-1.21875 0q-0.859375 0 -1.390625 0.5q-0.53125 0.484375 -0.53125 1.296875l0 2.78125l2.5 0l0 0.84375l-5.375 0l0 -0.84375zm7.7374725 0.84375l0 -6.421875l1.0 0l0 1.046875l0.046875 0q0.09375 -0.234375 0.25 -0.453125q0.15625 -0.21875 0.359375 -0.375q0.21875 -0.171875 0.515625 -0.265625q0.3125 -0.109375 0.703125 -0.109375q1.015625 0 1.625 0.640625q0.609375 0.640625 0.609375 1.8125l0 4.125l-1.0 0l0 -3.953125q0 -0.875 -0.390625 -1.296875q-0.375 -0.4375 -1.125 -0.4375q-0.296875 0 -0.59375 0.078125q-0.28125 0.0625 -0.515625 0.21875q-0.21875 0.140625 -0.359375 0.390625q-0.125 0.234375 -0.125 0.546875l0 4.453125l-1.0 0zm10.096848 0.15625q-0.6875 0 -1.25 -0.234375q-0.546875 -0.25 -0.953125 -0.6875q-0.390625 -0.4375 -0.609375 -1.046875q-0.203125 -0.625 -0.203125 -1.390625q0 -0.765625 0.21875 -1.390625q0.21875 -0.625 0.609375 -1.0625q0.390625 -0.453125 0.921875 -0.6875q0.546875 -0.234375 1.203125 -0.234375q0.65625 0 1.171875 0.234375q0.53125 0.234375 0.90625 0.65625q0.375 0.421875 0.578125 1.0q0.203125 0.5625 0.203125 1.25l0 0.46875l-4.765625 0l0 0.296875q0 0.4375 0.140625 0.796875q0.140625 0.359375 0.390625 0.625q0.265625 0.25 0.625 0.40625q0.375 0.140625 0.8125 0.140625q0.65625 0 1.125 -0.296875q0.46875 -0.3125 0.71875 -0.828125l0.734375 0.5q-0.28125 0.640625 -0.953125 1.0625q-0.65625 0.421875 -1.625 0.421875zm-0.0625 -5.90625q-0.40625 0 -0.765625 0.15625q-0.34375 0.140625 -0.59375 0.40625q-0.25 0.25 -0.40625 0.609375q-0.140625 0.359375 -0.140625 0.78125l0 0.078125l3.6875 0l0 -0.125q0 -0.421875 -0.125 -0.765625q-0.125 -0.359375 -0.359375 -0.609375q-0.234375 -0.265625 -0.5625 -0.390625q-0.328125 -0.140625 -0.734375 -0.140625zm8.987473 4.703125l-0.046875 0q-0.625 1.203125 -1.984375 1.203125q-1.1875 0 -1.859375 -0.890625q-0.65625 -0.890625 -0.65625 -2.484375q0 -1.59375 0.65625 -2.46875q0.671875 -0.890625 1.859375 -0.890625q1.359375 0 1.984375 1.203125l0.046875 0l0 -3.84375l0.984375 0l0 9.21875l-0.984375 0l0 -1.046875zm-1.640625 0.3125q0.328125 0 0.625 -0.078125q0.296875 -0.09375 0.515625 -0.265625q0.234375 -0.171875 0.359375 -0.40625q0.140625 -0.25 0.140625 -0.578125l0 -2.3125q0 -0.3125 -0.140625 -0.5625q-0.125 -0.25 -0.359375 -0.40625q-0.21875 -0.171875 -0.515625 -0.25q-0.296875 -0.09375 -0.625 -0.09375q-0.875 0 -1.359375 0.53125q-0.484375 0.53125 -0.484375 1.390625l0 1.09375q0 0.875 0.484375 1.40625q0.484375 0.53125 1.359375 0.53125zm15.42807 -7.109375q-0.4375 0 -0.625 -0.171875q-0.171875 -0.1875 -0.171875 -0.46875l0 -0.203125q0 -0.265625 0.171875 -0.4375q0.1875 -0.1875 0.625 -0.1875q0.421875 0 0.59375 0.1875q0.1875 0.171875 0.1875 0.4375l0 0.203125q0 0.28125 -0.1875 0.46875q-0.171875 0.171875 -0.59375 0.171875zm-2.828125 7.0l2.328125 0l0 -4.734375l-2.328125 0l0 -0.84375l3.3125 0l0 5.578125l2.171875 0l0 0.84375l-5.484375 0l0 -0.84375zm7.3780975 0.84375l0 -6.421875l1.0 0l0 1.046875l0.046875 0q0.09375 -0.234375 0.25 -0.453125q0.15625 -0.21875 0.359375 -0.375q0.21875 -0.171875 0.515625 -0.265625q0.3125 -0.109375 0.703125 -0.109375q1.015625 0 1.625 0.640625q0.609375 0.640625 0.609375 1.8125l0 4.125l-1.0 0l0 -3.953125q0 -0.875 -0.390625 -1.296875q-0.375 -0.4375 -1.125 -0.4375q-0.296875 0 -0.59375 0.078125q-0.28125 0.0625 -0.515625 0.21875q-0.21875 0.140625 -0.359375 0.390625q-0.125 0.234375 -0.125 0.546875l0 4.453125l-1.0 0zm11.549973 -1.046875l-0.046875 0q-0.625 1.203125 -1.984375 1.203125q-1.1875 0 -1.859375 -0.890625q-0.65625 -0.890625 -0.65625 -2.484375q0 -1.59375 0.65625 -2.46875q0.671875 -0.890625 1.859375 -0.890625q1.359375 0 1.984375 1.203125l0.046875 0l0 -3.84375l0.984375 0l0 9.21875l-0.984375 0l0 -1.046875zm-1.640625 0.3125q0.328125 0 0.625 -0.078125q0.296875 -0.09375 0.515625 -0.265625q0.234375 -0.171875 0.359375 -0.40625q0.140625 -0.25 0.140625 -0.578125l0 -2.3125q0 -0.3125 -0.140625 -0.5625q-0.125 -0.25 -0.359375 -0.40625q-0.21875 -0.171875 -0.515625 -0.25q-0.296875 -0.09375 -0.625 -0.09375q-0.875 0 -1.359375 0.53125q-0.484375 0.53125 -0.484375 1.390625l0 1.09375q0 0.875 0.484375 1.40625q0.484375 0.53125 1.359375 0.53125zm9.065598 -0.3125l-0.046875 0q-0.09375 0.234375 -0.25 0.453125q-0.140625 0.21875 -0.359375 0.390625q-0.21875 0.15625 -0.53125 0.25q-0.296875 0.109375 -0.6875 0.109375q-1.015625 0 -1.625 -0.640625q-0.609375 -0.65625 -0.609375 -1.8125l0 -4.125l1.0 0l0 3.9375q0 0.890625 0.375 1.328125q0.390625 0.421875 1.140625 0.421875q0.296875 0 0.578125 -0.078125q0.296875 -0.078125 0.515625 -0.21875q0.234375 -0.15625 0.359375 -0.375q0.140625 -0.234375 0.140625 -0.5625l0 -4.453125l1.0 0l0 6.421875l-1.0 0l0 -1.046875zm6.1749725 1.203125q-0.6875 0 -1.234375 -0.25q-0.546875 -0.25 -0.921875 -0.671875q-0.359375 -0.4375 -0.5625 -1.0625q-0.1875 -0.625 -0.1875 -1.390625q0 -0.75 0.1875 -1.375q0.203125 -0.625 0.578125 -1.0625q0.375 -0.453125 0.90625 -0.6875q0.546875 -0.234375 1.234375 -0.234375q0.921875 0 1.5 0.421875q0.59375 0.40625 0.875 1.0625l-0.796875 0.421875q-0.171875 -0.5 -0.578125 -0.765625q-0.40625 -0.28125 -1.0 -0.28125q-0.4375 0 -0.78125 0.15625q-0.34375 0.140625 -0.578125 0.40625q-0.234375 0.25 -0.359375 0.609375q-0.125 0.359375 -0.125 0.78125l0 1.09375q0 0.4375 0.125 0.796875q0.125 0.359375 0.359375 0.625q0.234375 0.25 0.578125 0.40625q0.359375 0.140625 0.796875 0.140625q0.65625 0 1.078125 -0.296875q0.421875 -0.3125 0.671875 -0.828125l0.703125 0.484375q-0.28125 0.640625 -0.890625 1.078125q-0.59375 0.421875 -1.578125 0.421875zm7.5655975 -0.15625q-0.734375 0 -1.078125 -0.40625q-0.34375 -0.421875 -0.34375 -1.0625l0 -4.109375l-2.140625 0l0 -0.84375l1.59375 0q0.328125 0 0.453125 -0.125q0.140625 -0.140625 0.140625 -0.46875l0 -1.671875l0.953125 0l0 2.265625l2.921875 0l0 0.84375l-2.921875 0l0 4.734375l2.921875 0l0 0.84375l-2.5 0zm7.5655975 -7.84375q-0.4375 0 -0.625 -0.171875q-0.171875 -0.1875 -0.171875 -0.46875l0 -0.203125q0 -0.265625 0.171875 -0.4375q0.1875 -0.1875 0.625 -0.1875q0.421875 0 0.59376526 0.1875q0.1875 0.171875 0.1875 0.4375l0 0.203125q0 0.28125 -0.1875 0.46875q-0.17189026 0.171875 -0.59376526 0.171875zm-2.828125 7.0l2.328125 0l0 -4.734375l-2.328125 0l0 -0.84375l3.3125 0l0 5.578125l2.1718903 0l0 0.84375l-5.4843903 0l0 -0.84375zm9.253098 0.84375l-2.296875 -6.421875l1.015625 0l0.921875 2.6875l0.984375 2.90625l0.046875 0l1.0 -2.90625l0.921875 -2.6875l0.984375 0l-2.296875 6.421875l-1.28125 0zm8.221848 0.15625q-0.6875 0 -1.25 -0.234375q-0.546875 -0.25 -0.953125 -0.6875q-0.390625 -0.4375 -0.60935974 -1.046875q-0.203125 -0.625 -0.203125 -1.390625q0 -0.765625 0.21875 -1.390625q0.21873474 -0.625 0.60935974 -1.0625q0.390625 -0.453125 0.921875 -0.6875q0.546875 -0.234375 1.203125 -0.234375q0.65625 0 1.171875 0.234375q0.53125 0.234375 0.90625 0.65625q0.375 0.421875 0.578125 1.0q0.203125 0.5625 0.203125 1.25l0 0.46875l-4.765625 0l0 0.296875q0 0.4375 0.140625 0.796875q0.140625 0.359375 0.390625 0.625q0.265625 0.25 0.625 0.40625q0.375 0.140625 0.8125 0.140625q0.65625 0 1.125 -0.296875q0.46875 -0.3125 0.71875 -0.828125l0.734375 0.5q-0.28125 0.640625 -0.953125 1.0625q-0.65625 0.421875 -1.625 0.421875zm-0.0625 -5.90625q-0.40625 0 -0.765625 0.15625q-0.34375 0.140625 -0.59375 0.40625q-0.25 0.25 -0.40625 0.609375q-0.140625 0.359375 -0.140625 0.78125l0 0.078125l3.6875 0l0 -0.125q0 -0.421875 -0.125 -0.765625q-0.125 -0.359375 -0.359375 -0.609375q-0.234375 -0.265625 -0.5625 -0.390625q-0.328125 -0.140625 -0.734375 -0.140625z" fill-rule="nonzero"/><path fill="#000000" d="m165.67903 759.5967q-0.4375 0 -0.625 -0.171875q-0.171875 -0.1875 -0.171875 -0.46875l0 -0.203125q0 -0.265625 0.171875 -0.4375q0.1875 -0.1875 0.625 -0.1875q0.421875 0 0.59375 0.1875q0.1875 0.171875 0.1875 0.4375l0 0.203125q0 0.28125 -0.1875 0.46875q-0.171875 0.171875 -0.59375 0.171875zm-2.828125 7.0l2.328125 0l0 -4.734375l-2.328125 0l0 -0.84375l3.3125 0l0 5.578125l2.171875 0l0 0.84375l-5.484375 0l0 -0.84375zm7.3780975 0.84375l0 -6.421875l1.0 0l0 1.046875l0.046875 0q0.09375 -0.234375 0.25 -0.453125q0.15625 -0.21875 0.359375 -0.375q0.21875 -0.171875 0.515625 -0.265625q0.3125 -0.109375 0.703125 -0.109375q1.015625 0 1.625 0.640625q0.609375 0.640625 0.609375 1.8125l0 4.125l-1.0 0l0 -3.953125q0 -0.875 -0.390625 -1.296875q-0.375 -0.4375 -1.125 -0.4375q-0.296875 0 -0.59375 0.078125q-0.28125 0.0625 -0.515625 0.21875q-0.21875 0.140625 -0.359375 0.390625q-0.125 0.234375 -0.125 0.546875l0 4.453125l-1.0 0zm9.346848 0l-2.296875 -6.421875l1.015625 0l0.921875 2.6875l0.984375 2.90625l0.046875 0l1.0 -2.90625l0.921875 -2.6875l0.984375 0l-2.296875 6.421875l-1.28125 0zm10.549973 0q-0.59375 0 -0.84375 -0.296875q-0.25 -0.296875 -0.3125 -0.75l-0.0625 0q-0.203125 0.5625 -0.671875 0.890625q-0.46875 0.3125 -1.25 0.3125q-1.015625 0 -1.609375 -0.515625q-0.59375 -0.53125 -0.59375 -1.453125q0 -0.890625 0.640625 -1.375q0.65625 -0.484375 2.125 -0.484375l1.359375 0l0 -0.640625q0 -0.703125 -0.40625 -1.0625q-0.390625 -0.359375 -1.125 -0.359375q-0.640625 0 -1.0625 0.265625q-0.40625 0.25 -0.65625 0.6875l-0.671875 -0.5q0.125 -0.25 0.328125 -0.484375q0.21875 -0.234375 0.53125 -0.40625q0.3125 -0.1875 0.703125 -0.296875q0.40625 -0.109375 0.890625 -0.109375q1.140625 0 1.796875 0.578125q0.671875 0.578125 0.671875 1.59375l0 3.53125l0.890625 0l0 0.875l-0.671875 0zm-2.96875 -0.6875q0.390625 0 0.703125 -0.09375q0.3125 -0.09375 0.546875 -0.25q0.234375 -0.15625 0.359375 -0.375q0.140625 -0.21875 0.140625 -0.46875l0 -1.046875l-1.359375 0q-0.90625 0 -1.3125 0.25q-0.40625 0.25 -0.40625 0.71875l0 0.265625q0 0.484375 0.34375 0.75q0.359375 0.25 0.984375 0.25zm5.2218475 -0.15625l1.890625 0l0 -4.734375l-1.890625 0l0 -0.84375l2.875 0l0 1.609375l0.0625 0q0.203125 -0.75 0.75 -1.171875q0.5625 -0.4375 1.421875 -0.4375l0.90625 0l0 1.0l-1.21875 0q-0.859375 0 -1.390625 0.5q-0.53125 0.484375 -0.53125 1.296875l0 2.78125l2.5 0l0 0.84375l-5.375 0l0 -0.84375zm10.659348 -7.0q-0.4375 0 -0.625 -0.171875q-0.171875 -0.1875 -0.171875 -0.46875l0 -0.203125q0 -0.265625 0.171875 -0.4375q0.1875 -0.1875 0.625 -0.1875q0.421875 0 0.59375 0.1875q0.1875 0.171875 0.1875 0.4375l0 0.203125q0 0.28125 -0.1875 0.46875q-0.171875 0.171875 -0.59375 0.171875zm-2.828125 7.0l2.328125 0l0 -4.734375l-2.328125 0l0 -0.84375l3.3125 0l0 5.578125l2.171875 0l0 0.84375l-5.484375 0l0 -0.84375zm12.331223 0.84375q-0.59375 0 -0.84375 -0.296875q-0.25 -0.296875 -0.3125 -0.75l-0.0625 0q-0.203125 0.5625 -0.671875 0.890625q-0.46875 0.3125 -1.25 0.3125q-1.015625 0 -1.609375 -0.515625q-0.59375 -0.53125 -0.59375 -1.453125q0 -0.890625 0.640625 -1.375q0.65625 -0.484375 2.125 -0.484375l1.359375 0l0 -0.640625q0 -0.703125 -0.40625 -1.0625q-0.390625 -0.359375 -1.125 -0.359375q-0.640625 0 -1.0625 0.265625q-0.40625 0.25 -0.65625 0.6875l-0.671875 -0.5q0.125 -0.25 0.328125 -0.484375q0.21875 -0.234375 0.53125 -0.40625q0.3125 -0.1875 0.703125 -0.296875q0.40625 -0.109375 0.890625 -0.109375q1.140625 0 1.796875 0.578125q0.671875 0.578125 0.671875 1.59375l0 3.53125l0.890625 0l0 0.875l-0.671875 0zm-2.96875 -0.6875q0.390625 0 0.703125 -0.09375q0.3125 -0.09375 0.546875 -0.25q0.234375 -0.15625 0.359375 -0.375q0.140625 -0.21875 0.140625 -0.46875l0 -1.046875l-1.359375 0q-0.90625 0 -1.3125 0.25q-0.40625 0.25 -0.40625 0.71875l0 0.265625q0 0.484375 0.34375 0.75q0.359375 0.25 0.984375 0.25zm5.4874725 0.6875l0 -6.421875l1.0 0l0 1.046875l0.046875 0q0.09375 -0.234375 0.25 -0.453125q0.15625 -0.21875 0.359375 -0.375q0.21875 -0.171875 0.515625 -0.265625q0.3125 -0.109375 0.703125 -0.109375q1.015625 0 1.625 0.640625q0.609375 0.640625 0.609375 1.8125l0 4.125l-1.0 0l0 -3.953125q0 -0.875 -0.390625 -1.296875q-0.375 -0.4375 -1.125 -0.4375q-0.296875 0 -0.59375 0.078125q-0.28125 0.0625 -0.515625 0.21875q-0.21875 0.140625 -0.359375 0.390625q-0.125 0.234375 -0.125 0.546875l0 4.453125l-1.0 0zm10.299973 0q-0.734375 0 -1.078125 -0.40625q-0.34375 -0.421875 -0.34375 -1.0625l0 -4.109375l-2.140625 0l0 -0.84375l1.59375 0q0.328125 0 0.453125 -0.125q0.140625 -0.140625 0.140625 -0.46875l0 -1.671875l0.953125 0l0 2.265625l2.921875 0l0 0.84375l-2.921875 0l0 4.734375l2.921875 0l0 0.84375l-2.5 0zm7.2374725 0.15625q-1.015625 0 -1.75 -0.34375q-0.71875 -0.34375 -1.234375 -0.921875l0.671875 -0.578125q0.46875 0.484375 1.015625 0.75q0.546875 0.25 1.3125 0.25q0.75 0 1.234375 -0.265625q0.484375 -0.265625 0.484375 -0.84375q0 -0.25 -0.09375 -0.40625q-0.09375 -0.171875 -0.265625 -0.265625q-0.15625 -0.109375 -0.359375 -0.15625q-0.203125 -0.0625 -0.421875 -0.109375l-1.0 -0.140625q-0.34375 -0.046875 -0.734375 -0.125q-0.390625 -0.09375 -0.71875 -0.28125q-0.328125 -0.203125 -0.546875 -0.53125q-0.203125 -0.328125 -0.203125 -0.84375q0 -0.484375 0.1875 -0.84375q0.1875 -0.359375 0.53125 -0.59375q0.359375 -0.25 0.828125 -0.359375q0.46875 -0.125 1.03125 -0.125q0.875 0 1.515625 0.28125q0.640625 0.265625 1.109375 0.75l-0.65625 0.609375q-0.109375 -0.125 -0.28125 -0.265625q-0.15625 -0.15625 -0.40625 -0.265625q-0.25 -0.125 -0.578125 -0.1875q-0.3125 -0.078125 -0.734375 -0.078125q-0.765625 0 -1.171875 0.265625q-0.40625 0.25 -0.40625 0.75q0 0.25 0.09375 0.421875q0.09375 0.15625 0.25 0.265625q0.171875 0.09375 0.375 0.15625q0.203125 0.046875 0.421875 0.09375l1.015625 0.140625q0.34375 0.046875 0.71875 0.140625q0.390625 0.09375 0.71875 0.28125q0.328125 0.1875 0.546875 0.515625q0.21875 0.328125 0.21875 0.84375q0 0.96875 -0.75 1.5q-0.734375 0.515625 -1.96875 0.515625z" fill-rule="nonzero"/><path fill="#000000" fill-opacity="0.0" d="m198.89764 165.19685l0 28.18898" fill-rule="evenodd"/><path stroke="#000000" stroke-width="2.0" stroke-linejoin="round" stroke-linecap="butt" d="m198.89764 165.19685l0 16.18898" fill-rule="evenodd"/><path fill="#000000" stroke="#000000" stroke-width="2.0" stroke-linecap="butt" d="m195.59418 181.38583l3.3034668 9.076187l3.3034515 -9.076187z" fill-rule="evenodd"/><path fill="#000000" fill-opacity="0.0" d="m198.89764 358.5685l0 86.96063" fill-rule="evenodd"/><path stroke="#000000" stroke-width="2.0" stroke-linejoin="round" stroke-linecap="butt" d="m198.89764 358.56854l0 74.9606" fill-rule="evenodd"/><path fill="#000000" stroke="#000000" stroke-width="2.0" stroke-linecap="butt" d="m195.59418 433.52914l3.3034668 9.076202l3.3034515 -9.076202z" fill-rule="evenodd"/><path fill="#000000" fill-opacity="0.0" d="m198.89764 584.0838l0 112.787415" fill-rule="evenodd"/><path stroke="#000000" stroke-width="2.0" stroke-linejoin="round" stroke-linecap="butt" d="m198.89764 584.0838l0 100.787415" fill-rule="evenodd"/><path fill="#000000" stroke="#000000" stroke-width="2.0" stroke-linecap="butt" d="m195.59418 684.8712l3.3034668 9.076233l3.3034515 -9.076233z" fill-rule="evenodd"/><path fill="#000000" fill-opacity="0.0" d="m198.89764 584.0838l0 25.000183l191.80313 0l0 -188.55151l-191.74014 0l0 25.000183" fill-rule="evenodd"/><path stroke="#000000" stroke-width="2.0" stroke-linejoin="round" stroke-linecap="butt" d="m198.89764 584.0838l0 25.000183l191.80313 0l0 -188.55151l-191.74014 0l0 13.000183" fill-rule="evenodd"/><path fill="#000000" stroke="#000000" stroke-width="2.0" stroke-linecap="butt" d="m195.65717 433.53265l3.3034668 9.076172l3.3034668 -9.076172z" fill-rule="evenodd"/></g></svg>